<mxfile host="65bd71144e">
    <diagram name="Страница — 1" id="PtERw0xOoVtdUdhSGjrE">
        <mxGraphModel dx="962" dy="1810" grid="1" gridSize="10" guides="1" tooltips="1" connect="1" arrows="1" fold="1" page="1" pageScale="1" pageWidth="827" pageHeight="1169" math="0" shadow="0">
            <root>
                <mxCell id="0"/>
                <mxCell id="1" parent="0"/>
                <mxCell id="203" value="1" style="edgeStyle=none;html=1;" parent="1" source="190" target="196" edge="1">
                    <mxGeometry relative="1" as="geometry"/>
                </mxCell>
                <mxCell id="204" value="2" style="edgeStyle=none;html=1;" parent="1" source="190" target="194" edge="1">
                    <mxGeometry relative="1" as="geometry"/>
                </mxCell>
                <mxCell id="190" value="1" style="ellipse;whiteSpace=wrap;html=1;aspect=fixed;" parent="1" vertex="1">
                    <mxGeometry x="10" y="-1160" width="40" height="40" as="geometry"/>
                </mxCell>
                <mxCell id="205" value="3" style="edgeStyle=none;html=1;" parent="1" source="194" target="196" edge="1">
                    <mxGeometry relative="1" as="geometry"/>
                </mxCell>
                <mxCell id="194" value="4" style="ellipse;whiteSpace=wrap;html=1;aspect=fixed;" parent="1" vertex="1">
                    <mxGeometry x="10" y="-1080" width="40" height="40" as="geometry"/>
                </mxCell>
                <mxCell id="196" value="2" style="ellipse;whiteSpace=wrap;html=1;aspect=fixed;" parent="1" vertex="1">
                    <mxGeometry x="110" y="-1160" width="40" height="40" as="geometry"/>
                </mxCell>
                <mxCell id="206" value="4" style="edgeStyle=none;html=1;" parent="1" source="197" target="194" edge="1">
                    <mxGeometry relative="1" as="geometry"/>
                </mxCell>
                <mxCell id="197" value="3" style="ellipse;whiteSpace=wrap;html=1;aspect=fixed;" parent="1" vertex="1">
                    <mxGeometry x="110" y="-1080" width="40" height="40" as="geometry"/>
                </mxCell>
            </root>
        </mxGraphModel>
    </diagram>
</mxfile>